# xmcd CD database file
#
# Track frame offsets:
#	183
#	10683
#	22433
#	35383
#	47683
#	60570
#	74283
#	88083
#	103083
#	115833
#	129458
#	144258
#	157383
#	170883
#	184458
#	198058
#	211608
#	225408
#	238533
#	252633
#
# Disc length: 3555 seconds
#
# Revision: 0
# Processed by: cddbd v1.5.2PL0 Copyright (c) Steve Scherf et al.
# Submitted via: CDex 1.51
#
DISCID=1d0de114
DTITLE=Bix Beiderbecke - The Bix Beiderbecke Gold Collection (Disk 3)
DYEAR=1900
DGENRE=Jazz
TTITLE0=Oh Baby
TTITLE1=Susie
TTITLE2=I Need Some Pettin'
TTITLE3=Lazzy Dady
TTITLE4=Big Boy
TTITLE5=Just One More Kiss
TTITLE6=Proud Of A Baby Like You
TTITLE7=I'm Looking Over A Four Leaf Clover
TTITLE8=I'm Gonna Meet My Sweetie Now
TTITLE9=Slow River
TTITLE10=Goose Pimples
TTITLE11=Sorry
TTITLE12=Thou Swell
TTITLE13=Louisiana
TTITLE14=Humpty Dumpty
TTITLE15=The Baltimore
TTITLE16=Cryinng All Day
TTITLE17=There'll Comme A Time
TTITLE18=Mississippi Mud
TTITLE19=Borneo
EXTD=
EXTT0=
EXTT1=
EXTT2=
EXTT3=
EXTT4=
EXTT5=
EXTT6=
EXTT7=
EXTT8=
EXTT9=
EXTT10=
EXTT11=
EXTT12=
EXTT13=
EXTT14=
EXTT15=
EXTT16=
EXTT17=
EXTT18=
EXTT19=
PLAYORDER=
